<svg width="24" height="24" viewBox="0 0 24 24" fill="none" xmlns="http://www.w3.org/2000/svg">
<rect x="3" y="5.99999" width="18" height="15" rx="2" stroke="white" stroke-width="2"/>
<path d="M3 9.99999C3 8.11437 3 7.17157 3.58579 6.58578C4.17157 5.99999 5.11438 5.99999 7 5.99999H17C18.8856 5.99999 19.8284 5.99999 20.4142 6.58578C21 7.17157 21 8.11437 21 9.99999H3Z" fill="white"/>
<path d="M7 2.99999L7 5.99999" stroke="white" stroke-width="2" stroke-linecap="round"/>
<path d="M17 2.99999L17 5.99999" stroke="white" stroke-width="2" stroke-linecap="round"/>
<rect x="7" y="12" width="4" height="2" rx="0.5" fill="white"/>
<rect x="7" y="16" width="4" height="2" rx="0.5" fill="white"/>
<rect x="13" y="12" width="4" height="2" rx="0.5" fill="white"/>
<rect x="13" y="16" width="4" height="2" rx="0.5" fill="white"/>
</svg>
